<?xml version='1.0' encoding='utf-8'?>
<svg xmlns="http://www.w3.org/2000/svg" clip-rule="evenodd" fill-rule="evenodd" stroke-linejoin="round" stroke-miterlimit="2" version="1.1" viewBox="0 0 6887 7016"> <g transform="translate(-17042 -6234.3)"> <g transform="matrix(11.568 0 0 8.3333 17042 6234.3)"> <rect width="595.28" height="841.89" fill="none"/> <clipPath id="a"> <rect width="595.28" height="841.89"/> </clipPath> <g clip-path="url(#a)"> <g transform="matrix(.72037 0 0 1.4281 -34.185 -60.436)"> <rect width="921.26" height="708.66" fill="url(#b)"/> </g> <g transform="matrix(.3559 0 0 .49406 -206.59 -7871.9)"> <g transform="matrix(5.3565 0 0 5.3565 1442.2 16768)"> <path d="m0-135.46v135.46l95.79-95.79c-24.992-23.929-58.648-38.878-95.79-39.675" fill="#fab12e" fill-rule="nonzero"/> </g> <g transform="matrix(5.3565 0 0 5.3565 1445.1 16477)"> <path d="M0,66.981L94.725,66.981C94.167,41.009 83.714,17.476 66.981,0L0,66.981Z" fill="#fff" fill-rule="nonzero"/> </g> <g transform="matrix(5.3565 0 0 5.3565 1445.1 17218)"> <path d="m0-66.981 66.981 66.981c16.733-17.476 27.186-41.009 27.744-66.981h-94.725z" fill="#fab12e" fill-rule="nonzero"/> </g> <g transform="matrix(5.3565 0 0 5.3565 1428.5 17384)"> <path d="M0,-94.725L0,0C25.971,-0.558 49.505,-11.011 66.982,-27.744L0,-94.725Z" fill="#fff" fill-rule="nonzero"/> </g> <g transform="matrix(5.3565 0 0 5.3565 1405 17384)"> <path d="M0,-94.725L-66.981,-27.744C-49.505,-11.011 -25.972,-0.558 0,0L0,-94.725Z" fill="#fab12e" fill-rule="nonzero"/> </g> <g transform="matrix(5.3565 0 0 5.3565 1388.5 17218)"> <path d="m0-66.981h-94.725c0.558 25.972 11.011 49.505 27.744 66.981l66.981-66.981z" fill="#fff" fill-rule="nonzero"/> </g> <g transform="matrix(5.3565 0 0 5.3565 1388.5 16477)"> <path d="m0 66.981-66.981-66.981c-16.733 17.476-27.186 41.009-27.744 66.981h94.725z" fill="#fab12e" fill-rule="nonzero"/> </g> <g transform="matrix(5.3565 0 0 5.3565 1405 16312)"> <path d="M0,94.725L0,0C-25.972,0.558 -49.505,11.011 -66.981,27.744L0,94.725Z" fill="#fff" fill-rule="nonzero"/> </g> <g transform="matrix(0 -5.3565 -5.3565 0 1263.5 16436)"> <path d="m-10.621-10.621c-5.866 0-10.62 4.755-10.62 10.621 0 5.865 4.754 10.621 10.62 10.621s10.621-4.756 10.621-10.621c0-5.866-4.755-10.621-10.621-10.621" fill="#1e1c1a" fill-rule="nonzero"/> </g> <g transform="matrix(0 -5.3565 -5.3565 0 1149.7 16886)"> <path d="m-10.621-10.621c-5.866 0-10.621 4.755-10.621 10.621 0 5.865 4.755 10.621 10.621 10.621 5.865 0 10.621-4.756 10.621-10.621 0-5.866-4.756-10.621-10.621-10.621" fill="#1e1c1a" fill-rule="nonzero"/> </g> <g transform="matrix(0 -5.3565 -5.3565 0 1551 17120)"> <path d="m-10.621-10.62c-5.865 0-10.62 4.755-10.62 10.62 0 5.866 4.755 10.621 10.62 10.621 5.866 0 10.621-4.755 10.621-10.621-0-5.865-4.755-10.62-10.621-10.62" fill="#1e1c1a" fill-rule="nonzero"/> </g> <g transform="matrix(0 -5.3565 -5.3565 0 1807.8 16886)"> <path d="m-10.621-10.621c-5.866 0-10.62 4.755-10.62 10.62 0 5.866 4.754 10.622 10.62 10.622 5.865 0 10.621-4.756 10.621-10.622 0-5.865-4.756-10.62-10.621-10.62" fill="#faea0d" fill-rule="nonzero"/> </g> <g transform="matrix(0 -5.3565 -5.3565 0 1603.4 16897)"> <path d="m-4.936-4.936c-2.726 0-4.936 2.21-4.936 4.937 0 2.725 2.21 4.935 4.936 4.935s4.936-2.21 4.936-4.935c0-2.727-2.21-4.937-4.936-4.937" fill="#0d6635" fill-rule="nonzero"/> </g> <g transform="matrix(0 -5.3565 -5.3565 0 1320.4 17156)"> <path d="m-4.936-4.936c-2.726 0-4.936 2.209-4.936 4.937 0 2.725 2.21 4.935 4.936 4.935 2.727 0 4.937-2.21 4.937-4.935 0-2.728-2.21-4.937-4.937-4.937" fill="#0d6635" fill-rule="nonzero"/> </g> <g transform="matrix(0 -5.3565 -5.3565 0 1146.4 16688)"> <path d="m-7.106-7.107c-3.925 0-7.107 3.182-7.107 7.107s3.182 7.106 7.107 7.106 7.106-3.181 7.106-7.106-3.181-7.107-7.106-7.107" fill="#0d6635" fill-rule="nonzero"/> </g> <g transform="matrix(0 -5.3565 -5.3565 0 1331.2 16603)"> <path d="m-5.782-5.783c-3.194 0-5.783 2.589-5.783 5.783s2.589 5.782 5.783 5.782c3.193 0 5.782-2.588 5.782-5.782s-2.589-5.783-5.782-5.783" fill="#1e1c1a" fill-rule="nonzero"/> </g> <g transform="matrix(0 -5.3565 -5.3565 0 1787.3 16620)"> <path d="m-6.784-6.784c-3.747 0-6.784 3.038-6.784 6.784 0 3.747 3.037 6.784 6.784 6.784s6.784-3.037 6.784-6.784c0-3.746-3.037-6.784-6.784-6.784" fill="#1e1c1a" fill-rule="nonzero"/> </g> <g transform="matrix(0 -5.3565 -5.3565 0 1624.3 16745)"> <path d="m-4.326-4.327c-2.39 0-4.327 1.937-4.327 4.326 0 2.39 1.937 4.327 4.327 4.327 2.389 0 4.326-1.937 4.326-4.327-0-2.389-1.937-4.326-4.326-4.326" fill="#1e1c1a" fill-rule="nonzero"/> </g> <g transform="matrix(0 -5.3565 -5.3565 0 1346.8 17000)"> <path d="m-4.327-4.326c-2.389 0-4.326 1.937-4.326 4.327 0 2.389 1.937 4.326 4.326 4.326 2.39 0 4.327-1.937 4.327-4.326-0-2.39-1.937-4.327-4.327-4.327" fill="#faea0d" fill-rule="nonzero"/> </g> <g transform="matrix(0 -5.3565 -5.3565 0 1240.3 16768)"> <path d="m-4.327-4.326c-2.389 0-4.326 1.937-4.326 4.327 0 2.389 1.937 4.326 4.326 4.326 2.39 0 4.327-1.937 4.327-4.326-0-2.39-1.937-4.327-4.327-4.327" fill="#e51e25" fill-rule="nonzero"/> </g> <g transform="matrix(0 -5.3565 -5.3565 0 1551 16462)"> <path d="m-9.782-9.782c-5.401 0-9.781 4.38-9.781 9.781 0 5.404 4.38 9.783 9.781 9.783 5.403 0 9.783-4.379 9.783-9.783 0-5.401-4.38-9.781-9.783-9.781" fill="#e51e25" fill-rule="nonzero"/> </g> <g transform="matrix(0 -5.3565 -5.3565 0 1647.5 16401)"> <path d="m-6.439-6.439c-3.556 0-6.438 2.883-6.438 6.439 0 3.555 2.882 6.439 6.438 6.439s6.439-2.884 6.439-6.439c-0-3.556-2.883-6.439-6.439-6.439" fill="#0d6635" fill-rule="nonzero"/> </g> <g transform="matrix(0 -5.3565 -5.3565 0 1801.8 16266)"> <path d="m-4.553-4.553c-2.515 0-4.552 2.038-4.552 4.553 0 2.514 2.037 4.553 4.552 4.553s4.553-2.039 4.553-4.553c0-2.515-2.038-4.553-4.553-4.553" fill="#fff" fill-rule="nonzero"/> </g> <g transform="matrix(0 -5.3565 -5.3565 0 1080.1 16596)"> <path d="m-4.553-4.553c-2.515 0-4.552 2.039-4.552 4.553s2.037 4.553 4.552 4.553c2.514 0 4.553-2.039 4.553-4.553s-2.039-4.553-4.553-4.553" fill="#fff" fill-rule="nonzero"/> </g> <g transform="matrix(0 -5.3565 -5.3565 0 1689.2 16899)"> <path d="m-4.553-4.553c-2.513 0-4.552 2.038-4.552 4.553 0 2.514 2.039 4.553 4.552 4.553 2.515 0 4.553-2.039 4.553-4.553 0-2.515-2.038-4.553-4.553-4.553" fill="#fff" fill-rule="nonzero"/> </g> <g transform="matrix(0 -5.3565 -5.3565 0 1269.6 17072)"> <path d="m-4.553-4.553c-2.515 0-4.553 2.039-4.553 4.553s2.038 4.553 4.553 4.553c2.514 0 4.553-2.039 4.553-4.553s-2.039-4.553-4.553-4.553" fill="#fff" fill-rule="nonzero"/> </g> <g transform="matrix(0 -5.3565 -5.3565 0 1014.2 16673)"> <path d="m-7.75-7.75c-4.28 0-7.75 3.47-7.75 7.75s3.47 7.75 7.75 7.75 7.75-3.47 7.75-7.75-3.47-7.75-7.75-7.75" fill="#faea0d" fill-rule="nonzero"/> </g> <g transform="matrix(0 -5.3565 -5.3565 0 1217.1 17165)"> <path d="m-9.887-9.889c-5.462 0-9.89 4.427-9.89 9.888 0 5.463 4.428 9.888 9.89 9.888 5.461 0 9.888-4.425 9.888-9.888 0-5.461-4.427-9.888-9.888-9.888" fill="#e51e25" fill-rule="nonzero"/> </g> <g transform="matrix(0 -5.3565 -5.3565 0 1743 17011)"> <path d="m-6.784-6.784c-3.747 0-6.783 3.037-6.783 6.784 0 3.746 3.036 6.784 6.783 6.784 3.748 0 6.784-3.038 6.784-6.784 0-3.747-3.036-6.784-6.784-6.784" fill="#e51e25" fill-rule="nonzero"/> </g> <g transform="matrix(0 -5.3565 -5.3565 0 1607.9 16195)"> <path d="m-15.188-15.189c-8.389 0-15.189 6.8-15.189 15.188s6.8 15.189 15.189 15.189c8.388 0 15.188-6.801 15.188-15.189s-6.8-15.188-15.188-15.188" fill="#faea0d" fill-rule="nonzero"/> </g> <g transform="matrix(-4.9482 2.0511 2.0511 4.9482 1089.4 17140)"> <path d="m11.155-57.08c2.564 5.601 6.244 15.547 6.472 28.431 0.252 14.247-3.838 25.198-6.472 30.955 0.991-9.495 1.614-20.071 1.539-31.563-0.066-10.035-0.655-19.347-1.539-27.823" fill="#1e1c1a" fill-rule="nonzero"/> </g> <g transform="matrix(4.9483 -2.051 -2.051 -4.9483 1966 16782)"> <path d="m-11.361-2.22c2.565 5.602 6.245 15.547 6.473 28.432 0.252 14.246-3.839 25.198-6.473 30.954 0.991-9.495 1.614-20.071 1.54-31.563-0.066-10.034-0.656-19.346-1.54-27.823" fill="#1e1c1a" fill-rule="nonzero"/> </g> <g transform="matrix(-4.9492 -2.0487 -2.0487 4.9492 865.84 16778)"> <path d="m-11.58-57.173c2.565 5.602 6.245 15.547 6.473 28.431 0.252 14.246-3.838 25.198-6.473 30.955 0.991-9.495 1.615-20.071 1.539-31.563-0.065-10.034-0.654-19.346-1.539-27.823" fill="#f4921f" fill-rule="nonzero"/> </g> <g transform="matrix(4.9493 2.0486 2.0486 -4.9493 1739.6 17144)"> <path d="m11.365-2.302c2.564 5.602 6.244 15.547 6.473 28.431 0.251 14.246-3.839 25.198-6.473 30.956 0.991-9.496 1.614-20.073 1.539-31.563-0.066-10.035-0.655-19.347-1.539-27.824" fill="#f4921f" fill-rule="nonzero"/> </g> <g transform="matrix(-2.0511 -4.9482 -4.9482 2.0511 1124.4 16298)"> <path d="m-27.533-40.908c2.564 5.601 6.243 15.546 6.472 28.431 0.252 14.246-3.838 25.198-6.472 30.955 0.991-9.495 1.614-20.072 1.539-31.563-0.066-10.035-0.655-19.347-1.539-27.823" fill="#1e1c1a" fill-rule="nonzero"/> </g> <g transform="matrix(2.051 4.9483 4.9483 -2.051 1483.1 17174)"> <path d="m27.327-18.393c2.564 5.602 6.243 15.548 6.472 28.431 0.251 14.246-3.839 25.198-6.472 30.955 0.99-9.495 1.613-20.07 1.538-31.562-0.065-10.035-0.654-19.347-1.538-27.824" fill="#1e1c1a" fill-rule="nonzero"/> </g> <g transform="matrix(-2.0486 4.9493 4.9493 2.0486 1346 17173)"> <path d="m27.329-41.21c2.565 5.602 6.245 15.548 6.473 28.431 0.251 14.247-3.839 25.198-6.473 30.956 0.991-9.496 1.614-20.073 1.539-31.563-0.065-10.035-0.654-19.347-1.539-27.824" fill="#f4921f" fill-rule="nonzero"/> </g> <g transform="matrix(2.0489 -4.9492 -4.9492 -2.0489 1845.2 16011)"> <path d="m-38.752-25.69c3.63 7.857 8.841 21.815 9.163 39.94 0.357 20.038-5.435 35.483-9.163 43.606 1.402-13.366 2.285-28.252 2.179-44.418-0.093-14.116-0.927-27.211-2.179-39.128" fill="#f4921f" fill-rule="nonzero"/> </g> <g transform="matrix(-2.4894 -4.7429 -4.7429 2.4894 1002.7 16181)"> <path d="m-40.751-63.013c13.626 27.373 15.606 57.619 7.727 84.987l-7.727-2.408c7.266-25.388 5.424-53.424-7.167-78.817l7.167-3.762z" fill="#95c13d" fill-rule="nonzero"/> </g> <g transform="matrix(-4.7429 2.4894 2.4894 4.7429 1078.2 17212)"> <path d="m17.86-83.244c13.627 27.373 15.606 57.619 7.727 84.987l-7.727-2.408c7.266-25.388 5.424-53.424-7.167-78.818l7.167-3.761z" fill="#95c13d" fill-rule="nonzero"/> </g> <g transform="matrix(-5.1141 -1.5932 -1.5932 5.1141 757.34 16803)"> <path d="m-14.598-81.063c12.685 25.498 16.194 55.604 7.727 84.987l-7.727-2.408c7.804-27.248 4.558-55.155-7.167-78.818l7.167-3.761z" fill="#fab12e" fill-rule="nonzero"/> </g> <g transform="matrix(4.7429 -2.4894 -2.4894 -4.7429 2133.7 16762)"> <path d="m-20.519-4.402c13.627 27.373 15.606 57.618 7.728 84.986l-7.728-2.407c7.266-25.388 5.424-53.424-7.167-78.818l7.167-3.761z" fill="#95c13d" fill-rule="nonzero"/> </g> <g transform="matrix(-1.5932 5.1141 5.1141 1.5932 1323.5 17195)"> <path d="m38.29-55.108c12.685 25.498 16.193 55.605 7.726 84.986l-7.726-2.407c7.804-27.248 4.558-55.155-7.167-78.817l7.167-3.762z" fill="#fab12e" fill-rule="nonzero"/> </g> <g transform="matrix(3.7876 3.7876 3.7876 -3.7876 1744.2 17128)"> <path d="m29.448-3.699h8.095c-0.619 28.472-11.507 56.76-32.66 78.841l-5.723-5.724c19.575-20.498 29.672-46.717 30.288-73.117" fill="#fab12e" fill-rule="nonzero"/> </g> <g transform="matrix(2.4894 4.7429 4.7429 -2.4894 1452.6 17236)"> <path d="m38.091-24.634c13.627 27.373 15.606 57.619 7.727 84.986l-7.727-2.407c7.265-25.389 5.425-53.425-7.166-78.818l7.166-3.761z" fill="#95c13d" fill-rule="nonzero"/> </g> <g transform="matrix(5.3565 0 0 5.3565 1803.8 16252)"> <path d="m0 180.47-66.981-66.981h94.724c-0.557 25.971-11.011 49.505-27.743 66.981m-3.094 3.094c-17.476 16.732-41.01 27.185-66.982 27.743v-94.725l66.982 66.982zm-68.322 11.158c-0.283 4e-3 -0.563 0.022-0.847 0.022s-0.564-0.018-0.847-0.022v-81.375l-57.542 57.542c-0.404-0.396-0.804-0.795-1.2-1.199l57.542-57.541h-81.375c-2e-3 -0.283-0.021-0.564-0.021-0.848s0.019-0.564 0.021-0.848h81.375l-57.541-57.542c0.395-0.403 0.795-0.802 1.199-1.198l57.542 57.542v-81.375c0.283-3e-3 0.563-0.022 0.847-0.022 0.918 0 1.827 0.04 2.739 0.07v73.419l52.534-52.533c1.486 1.316 2.926 2.681 4.315 4.097l-57.541 57.542h81.374c3e-3 0.284 0.022 0.564 0.022 0.848s-0.019 0.565-0.022 0.848h-81.374l57.541 57.541c-0.395 0.404-0.796 0.803-1.199 1.2l-57.542-57.543v81.375zm-3.035 16.585c-25.971-0.558-49.505-11.011-66.982-27.743l66.982-66.982v94.725zm-70.075-30.837c-16.732-17.476-27.185-41.01-27.743-66.981h94.725l-66.982 66.981zm-27.743-71.356c0.558-25.972 11.011-49.506 27.743-66.982l66.982 66.982h-94.725zm30.836-70.076c17.477-16.733 41.011-27.185 66.982-27.743v94.725l-66.982-66.982zm73.918-78.007c37.142 0.797 70.798 15.746 95.79 39.675l-95.79 95.79v-135.46zm67.515 81.101c16.732 17.476 27.186 41.01 27.743 66.982h-94.724l66.981-66.982zm29.083 71.386 0.028-1.369h-12.003c3e-3 -0.283 0.022-0.564 0.022-0.848s-0.019-0.564-0.022-0.848h12.003l-0.028-1.369c-3e-3 -0.124-0.014-0.248-0.017-0.372h8.861c-0.656-28.483-12.115-54.296-30.443-73.499l-6.266 6.266c-0.085-0.09-0.164-0.184-0.25-0.274l-0.947-0.989-8.489 8.488c-1.389-1.416-2.824-2.786-4.305-4.107l43.921-43.922-1.482-1.42c-26.282-25.164-60.779-39.453-97.137-40.234l-2.053-0.043v62.999c-0.912-0.028-1.821-0.069-2.739-0.069-0.284 0-0.564 0.019-0.847 0.021v-12.003l-1.369 0.029c-0.125 2e-3 -0.248 0.014-0.373 0.016v-8.861c-28.482 0.657-54.295 12.115-73.499 30.443l6.267 6.266c-0.09 0.085-0.185 0.165-0.275 0.251l-0.989 0.947 8.488 8.488c-0.404 0.396-0.803 0.796-1.199 1.199l-8.488-8.488-0.946 0.989c-0.087 0.09-0.166 0.184-0.251 0.275l-6.267-6.267c-18.327 19.203-29.786 45.016-30.442 73.499h8.86c-3e-3 0.124-0.013 0.248-0.016 0.372l-0.029 1.369h12.003c-3e-3 0.284-0.022 0.564-0.022 0.848s0.019 0.565 0.022 0.848h-12.003l0.029 1.369c3e-3 0.124 0.013 0.246 0.016 0.37h-8.86c0.656 28.483 12.115 54.296 30.442 73.499l6.266-6.266c0.086 0.09 0.165 0.185 0.252 0.275l0.946 0.989 8.488-8.487c0.396 0.404 0.795 0.803 1.199 1.199l-8.488 8.488 0.989 0.947c0.089 0.086 0.184 0.166 0.274 0.25l-6.266 6.266c19.204 18.327 45.017 29.785 73.499 30.443v-8.861c0.125 3e-3 0.248 0.014 0.373 0.017l1.369 0.028v-12.002c0.283 3e-3 0.563 0.022 0.847 0.022s0.564-0.019 0.847-0.022v12.002l1.369-0.028c0.125-3e-3 0.248-0.014 0.372-0.017v8.861c28.484-0.658 54.296-12.116 73.499-30.443l-6.265-6.266c0.089-0.084 0.184-0.164 0.273-0.25l0.989-0.947-8.487-8.488c0.403-0.396 0.803-0.796 1.199-1.199l8.488 8.487 0.947-0.989c0.086-0.09 0.165-0.185 0.251-0.275l6.265 6.266c18.328-19.203 29.787-45.016 30.443-73.499h-8.861c3e-3 -0.124 0.014-0.246 0.017-0.37" fill="#1e1c1a" fill-rule="nonzero"/> </g> </g> </g> </g> </g> <defs> <linearGradient id="b" x2="1" gradientTransform="matrix(395.38 389.74 -556.58 276.86 22.901 -48.027)" gradientUnits="userSpaceOnUse"> <stop stop-color="#00883b" offset="0"/> <stop stop-color="#00320d" offset="1"/> </linearGradient> </defs> </svg>